#N canvas 0 22 755 426 10;
#X obj 203 -26 metro;
#X obj 233 -52 expr (60000/24)/$f1;
#X obj 233 -71 nbx 3 14 -1e+37 1e+37 0 1 empty empty empty 0 -8 0 10
-262144 -1 -1 118 256;
#X obj 199 -95 tgl 15 0 empty empty empty 17 7 0 10 -262144 -1 -1 0
1;
#X floatatom 244 -25 5 0 0 0 - - -;
#X text 360 -52 not sure if this equation is right?!;
#X msg 204 17 248;
#X msg 139 17 250;
#X msg 170 17 252;
#X obj 149 -25 sel 1 0;
#X obj 206 59 midiout;
#X obj 255 24 bng 23 50 10 0 empty empty empty 17 7 0 10 -262144 -1
-1;
#X obj 187 -66 t f f;
#X connect 0 0 6 0;
#X connect 0 0 11 0;
#X connect 1 0 0 1;
#X connect 1 0 4 0;
#X connect 2 0 1 0;
#X connect 3 0 12 0;
#X connect 6 0 10 0;
#X connect 7 0 10 0;
#X connect 8 0 10 0;
#X connect 9 0 7 0;
#X connect 9 1 8 0;
#X connect 12 0 0 0;
#X connect 12 1 9 0;
